<?xml version="1.0" encoding="utf-8"?>
<!-- Generator: Adobe Illustrator 16.0.4, SVG Export Plug-In . SVG Version: 6.00 Build 0)  -->
<!DOCTYPE svg PUBLIC "-//W3C//DTD SVG 1.1//EN" "http://www.w3.org/Graphics/SVG/1.1/DTD/svg11.dtd">
<svg version="1.1" id="Layer_1" xmlns="http://www.w3.org/2000/svg" xmlns:xlink="http://www.w3.org/1999/xlink" x="0px" y="0px"
	 width="58.25px" height="283.5px" viewBox="63.297 0 58.25 283.5" enable-background="new 63.297 0 58.25 283.5"
	 xml:space="preserve">
<g>
	<g>
		<g>
			<path fill="#FFFF00" d="M105.553,25.215L94.935,12.283c0,0-2.539-3.091-5.077,0l-0.461,0.562V12.25c0,0,0-2-2-2h-2c0,0-2,0-2,2
				v7.903l-4.157,5.062c0,0-2.539,3.093,1.461,3.093h1.22v7.942c0,0,0,3,3,3h2c0,0,3,0,3-3v-6h5v6c0,0,0,3,3,3h2c0,0,3,0,3-3v-7.942
				h1.17C104.09,28.307,108.09,28.307,105.553,25.215"/>
			<path fill="#FFFFFF" d="M99.92,43.25h-2c-2.463,0-4.312-1.059-5.488-2.567c-1.365,1.687-3.476,2.567-5.511,2.567h-2
				c-4.547,0-7-3.605-7-7v-4.387c-1.767-0.641-2.609-1.838-2.992-2.648c-1.118-2.363-0.103-4.928,1.22-6.539l3.248-3.953V12.25
				c0-3.896,3.091-6,6-6h2c1.274,0,2.355,0.33,3.236,0.877c0.609-0.162,1.178-0.218,1.668-0.218c3.231,0,5.334,2.361,5.725,2.835
				l10.619,12.934c2.38,2.898,1.818,5.27,1.273,6.424c-0.638,1.346-1.763,2.197-2.998,2.684v4.467
				C106.92,40.797,103.314,43.25,99.92,43.25z M85.162,24.307h0.759v5.943v-4h13v-1.943h0.711l-7.234-8.812l-7,8.543v-0.017
				L85.162,24.307z"/>
		</g>
	</g>
	<path fill="#0094D7" d="M105.553,25.957L94.935,13.024c0,0-2.539-3.091-5.077,0l-0.461,0.562V12.99c0,0,0-2-2-2h-2c0,0-2,0-2,2
		v7.903l-4.157,5.062c0,0-2.539,3.092,1.461,3.092h1.22v7.943c0,0,0,3,3,3h2c0,0,3,0,3-3v-6h5v6c0,0,0,3,3,3h2c0,0,3,0,3-3v-7.943
		h1.17C104.09,29.047,108.09,29.047,105.553,25.957"/>
</g>
<g>
	<g>
		<g>
			<path fill="#FFFF00" d="M103.804,114.75v-8c0,0,0-8-8-8h-0.383c2.358-1.125,4.002-3.512,4.002-6.301c0-3.867-3.134-7-7-7
				c-3.867,0-7.001,3.133-7.001,7c0,2.789,1.643,5.176,4.002,6.301H89.04c0,0-8,0-8,8v8c0,0,0,2,2,2h18.764
				C101.804,116.75,103.804,116.75,103.804,114.75"/>
			<path fill="#FFFFFF" d="M101.804,120.75H83.04c-3.896,0-6-3.092-6-6v-8c0-5.031,2.344-8.23,5.253-10.049
				c-0.563-1.328-0.871-2.771-0.871-4.252c0-6.065,4.936-11,11.001-11s11,4.935,11,11c0,1.452-0.295,2.868-0.839,4.176
				c3.734,2.455,5.22,6.838,5.22,10.125v8C107.804,118.648,104.713,120.75,101.804,120.75z M85.04,112.75h14.764v-6
				c-0.046-1.799-0.778-4-4-4H89.04c-1.799,0.048-4,0.779-4,4V112.75z M92.423,89.449c-1.654,0-3.001,1.346-3.001,3
				c0,1.152,0.661,2.186,1.727,2.691l1.275,0.609l1.273-0.608c1.064-0.509,1.726-1.54,1.726-2.692
				C95.423,90.795,94.076,89.449,92.423,89.449z"/>
		</g>
	</g>
	<path fill="#0094D7" d="M103.804,114.75v-8c0,0,0-8-8-8h-0.383c2.358-1.125,4.002-3.513,4.002-6.302c0-3.866-3.134-7-7-7
		c-3.867,0-7.001,3.134-7.001,7c0,2.789,1.643,5.177,4.002,6.302H89.04c0,0-8,0-8,8v8c0,0,0,2,2,2h18.764
		C101.804,116.75,103.804,116.75,103.804,114.75"/>
</g>
<g>
	<g>
		<g>
			<path fill="#FFFF00" d="M88.965,268.66c0.248,1.917,2.002,3.271,3.918,3.021c1.92-0.246,3.273-2.002,3.025-3.918
				c-0.248-1.918-2.002-3.271-3.92-3.023C90.073,264.988,88.717,266.742,88.965,268.66 M101.752,249.434h0.002
				c0-0.01-0.004-0.019-0.004-0.027c-0.002-0.01-0.002-0.02-0.002-0.027h-0.004c-0.689-5.123-5.389-8.732-10.521-8.07
				c-4.16,0.536-7.328,3.717-8.045,7.635c-0.004,0.009-0.004,0.017-0.006,0.022c-0.006,0.028-0.014,0.056-0.019,0.084h0.003
				c-0.102,0.409-0.137,0.843-0.08,1.287c0.248,1.92,2.004,3.274,3.926,3.028c1.475-0.19,2.607-1.271,2.945-2.631
				c0,0,0.668-2.289,2.17-2.484c1.305-0.168,2.502,0.748,2.688,2.048c0.071,0.604-0.08,1.235-0.48,1.755l0.008,0.006l-4.176,5.412
				c-0.689,0.737-1.068,1.754-0.928,2.83c0.246,1.917,2,3.271,3.918,3.023c1.006-0.131,1.85-0.68,2.395-1.447l4.383-5.609
				l-0.01-0.008C101.45,254.23,102.041,251.777,101.752,249.434"/>
			<path fill="#FFFFFF" d="M92.43,275.712L92.43,275.712c-3.754,0-6.949-2.812-7.432-6.538c-0.254-1.962,0.279-3.846,1.352-5.337
				c-0.563-0.896-0.944-1.92-1.088-3.024c-0.153-1.187-0.02-2.373,0.379-3.475c-2.592-0.316-4.813-1.973-5.895-4.289
				c0,0-1.031-2.454-0.6-4.342c0,0,0.047-0.26,0.074-0.389l0.059-0.293c1.123-5.664,5.691-9.945,11.432-10.687
				c0.572-0.074,1.152-0.11,1.727-0.11c5.447,0,10.537,3.522,12.316,8.148c1.153,2.72,1.497,8.001,0.307,9.675l-6.275,9.17
				c0.564,0.896,0.948,1.923,1.091,3.031c0.257,1.983-0.274,3.953-1.5,5.54c-1.225,1.587-2.993,2.602-4.981,2.855
				C93.073,275.691,92.749,275.712,92.43,275.712z M92.43,267.712l-0.06,0.004c-0.125,0.017-0.249,0.087-0.329,0.19
				c-0.08,0.103-0.117,0.242-0.1,0.371c0.027,0.215,0.209,0.435,0.501,0.435c0.331-0.039,0.524-0.29,0.489-0.562
				C92.904,267.931,92.723,267.712,92.43,267.712z"/>
		</g>
	</g>
	<path fill="#0094D7" d="M88.965,268.66c0.248,1.917,2.002,3.271,3.918,3.021c1.92-0.246,3.273-2.002,3.025-3.918
		c-0.248-1.918-2.002-3.271-3.92-3.023C90.073,264.988,88.717,266.742,88.965,268.66 M101.752,249.434h0.002
		c0-0.01-0.004-0.019-0.004-0.027c-0.002-0.01-0.002-0.02-0.002-0.027h-0.004c-0.689-5.123-5.389-8.732-10.521-8.07
		c-4.16,0.536-7.328,3.717-8.045,7.635c-0.004,0.009-0.004,0.017-0.006,0.022c-0.006,0.028-0.014,0.056-0.019,0.084h0.003
		c-0.102,0.409-0.137,0.843-0.08,1.287c0.248,1.92,2.004,3.274,3.926,3.028c1.475-0.19,2.607-1.271,2.945-2.631
		c0,0,0.668-2.289,2.17-2.484c1.305-0.168,2.502,0.748,2.688,2.048c0.071,0.604-0.08,1.235-0.48,1.755l0.008,0.006l-4.176,5.412
		c-0.689,0.737-1.068,1.754-0.928,2.83c0.246,1.917,2,3.271,3.918,3.023c1.006-0.131,1.85-0.68,2.395-1.447l4.383-5.609l-0.01-0.008
		C101.45,254.23,102.041,251.777,101.752,249.434"/>
</g>
<g>
	<g>
		<path fill="#FFFF00" d="M88.129,178.333h-6.188c-0.892,0-1.613,0.724-1.613,1.612c0,0.891,0.723,1.613,1.613,1.613h6.187
			l-0.954,0.955c-0.631,0.629-0.631,1.649,0,2.278c0.629,0.631,1.65,0.631,2.279,0l3.708-3.705c0.027-0.028,0.037-0.067,0.062-0.098
			c0.113-0.13,0.219-0.267,0.283-0.427c0.072-0.176,0.104-0.361,0.109-0.547c0.002-0.025,0.016-0.045,0.016-0.07
			c0-0.014-0.008-0.024-0.01-0.039c-0.004-0.198-0.039-0.396-0.115-0.581c-0.053-0.124-0.141-0.224-0.219-0.329
			c-0.047-0.062-0.071-0.137-0.129-0.194l-3.708-3.704c-0.629-0.631-1.649-0.631-2.278,0c-0.631,0.629-0.631,1.648,0,2.278
			L88.129,178.333z M104.516,188.734v-8.062V171.4c0,0,0-1.611-1.29-2.58l-5.691-4.271c0,0-2.692-1.213-2.692,2.013v0.807h-6.855
			c-1.113,0-2.016,0.902-2.016,2.016v2.418c0,1.115,0.902,2.018,2.016,2.018c1.114,0,2.017-0.901,2.017-2.018V171.4h4.839v8.063
			v8.868h-4.839v-0.402c0-1.113-0.902-2.017-2.017-2.017c-1.113,0-2.016,0.901-2.016,2.017v2.42c0,1.111,0.902,2.014,2.016,2.014
			h6.855v1.211c0,3.226,2.692,2.011,2.692,2.011l5.691-4.269C104.516,190.348,104.516,188.734,104.516,188.734"/>
		<path fill="none" stroke="#FFFFFF" stroke-width="8" stroke-miterlimit="10" d="M88.129,178.333h-6.188
			c-0.892,0-1.613,0.724-1.613,1.612c0,0.891,0.723,1.613,1.613,1.613h6.187l-0.954,0.955c-0.631,0.629-0.631,1.649,0,2.278
			c0.629,0.631,1.65,0.631,2.279,0l3.708-3.705c0.027-0.028,0.037-0.067,0.062-0.098c0.113-0.13,0.219-0.267,0.283-0.427
			c0.072-0.176,0.104-0.361,0.109-0.547c0.002-0.025,0.016-0.045,0.016-0.07c0-0.014-0.008-0.024-0.01-0.039
			c-0.004-0.198-0.039-0.396-0.115-0.581c-0.053-0.124-0.141-0.224-0.219-0.329c-0.047-0.062-0.071-0.137-0.129-0.194l-3.708-3.704
			c-0.629-0.631-1.649-0.631-2.278,0c-0.631,0.629-0.631,1.648,0,2.278L88.129,178.333z M104.516,188.734v-8.062V171.4
			c0,0,0-1.611-1.29-2.58l-5.691-4.271c0,0-2.692-1.213-2.692,2.013v0.807h-6.855c-1.113,0-2.016,0.902-2.016,2.016v2.418
			c0,1.115,0.902,2.018,2.016,2.018c1.114,0,2.017-0.901,2.017-2.018V171.4h4.839v8.063v8.868h-4.839v-0.402
			c0-1.113-0.902-2.017-2.017-2.017c-1.113,0-2.016,0.901-2.016,2.017v2.42c0,1.111,0.902,2.014,2.016,2.014h6.855v1.211
			c0,3.226,2.692,2.011,2.692,2.011l5.691-4.269C104.516,190.348,104.516,188.734,104.516,188.734"/>
	</g>
	<path fill="#0094D7" d="M88.129,178.333h-6.188c-0.892,0-1.613,0.724-1.613,1.612c0,0.891,0.723,1.613,1.613,1.613h6.187
		l-0.954,0.955c-0.631,0.629-0.631,1.649,0,2.278c0.629,0.631,1.65,0.631,2.279,0l3.708-3.705c0.027-0.028,0.037-0.067,0.062-0.098
		c0.113-0.13,0.219-0.267,0.283-0.427c0.072-0.176,0.104-0.361,0.109-0.547c0.002-0.025,0.016-0.045,0.016-0.07
		c0-0.014-0.008-0.024-0.01-0.039c-0.004-0.198-0.039-0.396-0.115-0.581c-0.053-0.124-0.141-0.224-0.219-0.329
		c-0.047-0.062-0.071-0.137-0.129-0.194l-3.708-3.704c-0.629-0.631-1.649-0.631-2.278,0c-0.631,0.629-0.631,1.648,0,2.278
		L88.129,178.333z M104.516,188.734v-8.062V171.4c0,0,0-1.611-1.29-2.58l-5.691-4.271c0,0-2.692-1.213-2.692,2.013v0.807h-6.855
		c-1.113,0-2.016,0.902-2.016,2.016v2.418c0,1.115,0.902,2.018,2.016,2.018c1.114,0,2.017-0.901,2.017-2.018V171.4h4.839v8.063
		v8.868h-4.839v-0.402c0-1.113-0.902-2.017-2.017-2.017c-1.113,0-2.016,0.901-2.016,2.017v2.42c0,1.111,0.902,2.014,2.016,2.014
		h6.855v1.211c0,3.226,2.692,2.011,2.692,2.011l5.691-4.269C104.516,190.348,104.516,188.734,104.516,188.734"/>
</g>
</svg>
