<?xml version="1.0" encoding="utf-8"?>
<!-- Generator: Adobe Illustrator 16.0.4, SVG Export Plug-In . SVG Version: 6.00 Build 0)  -->
<!DOCTYPE svg PUBLIC "-//W3C//DTD SVG 1.1//EN" "http://www.w3.org/Graphics/SVG/1.1/DTD/svg11.dtd">
<svg version="1.1" id="Layer_1" xmlns="http://www.w3.org/2000/svg" xmlns:xlink="http://www.w3.org/1999/xlink" x="0px" y="0px"
	 width="50px" height="50px" viewBox="0 0 50 50" enable-background="new 0 0 50 50" xml:space="preserve">
<polygon fill="#FFFFFF" points="25,19.9 29,0 26.6,20.2 36.5,2.4 28,20.9 42.9,7.1 29.1,22 47.6,13.5 29.8,23.4 50,21 30.1,25 
	50,29 29.8,26.6 47.6,36.5 29.1,28 42.9,42.9 28,29.1 36.5,47.6 26.6,29.8 29,50 25,30.1 21,50 23.4,29.8 13.5,47.6 22,29.1 
	7.1,42.9 20.9,28 2.4,36.5 20.2,26.6 0,29 19.9,25 0,21 20.2,23.4 2.4,13.5 20.9,22 7.1,7.1 22,20.9 13.5,2.4 23.4,20.2 21,0 "/>
</svg>
