<svg xmlns="http://www.w3.org/2000/svg" width="1520" height="80" viewBox="0 0 1520 80"><path opacity=".16" fill="#FFF" d="M267.7 67.6c53.5 24.7 117 1.6 141.9-51.7C412 10.7 414 5.4 415.5 0h-3c-1.4 5.2-3.2 10.3-5.6 15.4-22.2 47.5-78.8 68.2-126.5 46.1-26.7-12.3-44.9-35.3-51.9-61.5h-18.6c8.1 28.8 28.4 54 57.8 67.6z"/><path opacity=".16" fill="#FFF" d="M342.5 46.8c22.3-8.1 38.2-25.9 44.8-46.8h-3.1c-6.6 16.9-20.1 31-38.5 37.7C312.1 49.9 275 33.1 262.2 0h-14.9c.3 1.1.7 2.2 1.1 3.3 13.9 37.9 56.1 57.4 94.1 43.5z"/><path opacity=".16" fill="#FFF" d="M354.1 0h-13.3c-7.6 3-16.2 3.1-24 0h-8.7c.5.4.9.7 1.4 1.1 13.8 10 32.1 9.1 44.6-1.1z"/><path opacity=".16" fill="#FFF" d="M307.4 11.9c20.5 15.1 49.3 10.8 64.4-9.6.6-.8 1.1-1.5 1.6-2.3h-11.1c-14 15.4-37.7 18-54.9 5.4-2.2-1.6-4.2-3.4-6-5.4h-5.3c2.9 4.5 6.7 8.5 11.3 11.9z"/><path opacity=".15" fill="#FFF" d="M540.8 18.7c53.6-.9 98.9 24.2 119.2 61.3h30.3C669.1 35.4 616.4 4.7 553.7 5.7c-60.4 1-113.5 31.4-139 74.3h5.1c23.8-35.6 69.4-60.4 121-61.3zM713 0h-52.9c33.6 18.6 58.6 46.7 69.9 80h40.3C761 48.6 740.8 21 713 0zM460.8 0h-18.5c-30.3 21-53.7 48.7-66.8 80h5.9c15.2-33.1 43.5-61.3 79.4-80z"/><path opacity=".15" fill="#FFF" d="M499.3 80h40.1c-12.8-3.8-27-3.8-40.1 0z"/><path opacity=".15" fill="#FFF" d="M464.6 74.3c35.2-28.9 90.6-29.8 123.9-2.1 3 2.5 5.7 5.1 8.1 7.9h14.2c-2.8-3.2-5.9-6.3-9.4-9.2-37.3-31.1-99.5-30-138.9 2.4-2.6 2.2-5.1 4.4-7.4 6.8h3.2c2-2.1 4.1-4 6.3-5.8z"/><path opacity=".14" fill="#FFF" d="M1284 33.2c-34.5-2-64.8-14.4-86.6-33.2h-10.6c24.7 27 63.3 45.3 108.2 47.9 52.6 3 101.3-16.2 131.9-47.9h-35.6c-27.2 22.5-65.9 35.6-107.3 33.2zM1420.8 42.2c11.6 3.1 23.1 7.7 34.3 13.9 23.6-15.1 43.2-34.2 57.2-56.1h-43.9c-12.5 16.4-28.8 30.7-47.6 42.2zM1309.7 72.7c-4.7 0-9.4-.1-14.1-.4-29.7-1.7-57.2-9.1-80.8-20.7 3.3 6.1 6.1 12.6 8.6 19.2 7.3 3.4 15 6.5 22.9 9.2h58c1.6-2.5 3.4-5 5.4-7.3zM1415.1 76.3c7.3-2.8 14.4-6 21.3-9.5-34.7-11.8-70.6-7.6-95.9 13.2h34.8c12.2-4.2 25.9-5.4 39.8-3.7z"/><path opacity=".14" fill="#FFF" d="M1315.7 0h-56.3c18.1 4.4 37.7 4.5 56.3 0z"/><path opacity=".2" fill="#FFF" d="M808.8 80h63.3c24.5-11.6 41.4-36.3 41.4-64.8 0-5.2-.6-10.3-1.6-15.2h-14.3c1.3 5 2 10.2 2 15.6 0 35.4-29.2 64.1-65.1 64.1-36 0-65.2-28.7-65.2-64.1 0-5.4.7-10.6 2-15.6H769c-1.1 4.9-1.6 10-1.6 15.2-.1 28.5 16.8 53.2 41.4 64.8z"/><path opacity=".2" fill="#FFF" d="M942.7 14.8c0-5-.4-9.9-1.2-14.8h-18.1c1 5 1.5 10.1 1.5 15.3 0 26.4-12.7 49.8-32.4 64.7h22.4c17.2-16.6 27.8-39.7 27.8-65.2zM759 15.3c0-5.2.5-10.3 1.5-15.3h-2.6c-.8 4.8-1.2 9.7-1.2 14.8 0 25.5 10.7 48.6 27.8 65.2h6.9C771.7 65.1 759 41.7 759 15.3z"/><path opacity=".18" fill="#FFF" d="M32.3 80h53.9c8.3-2 16.8-3 25.7-3 8.8 0 17.4 1 25.7 3H190c-21.7-17.6-49-28.1-78.8-28.1-29.9 0-57.3 10.5-78.9 28.1zM110.3-.5c-4.1 0-8.1.2-12.1.5h24.3c-4-.3-8.1-.5-12.2-.5z"/><path opacity=".18" fill="#FFF" d="M122.5 0H98.2C60.4 2.9 26.2 19.1 0 44.2V80h4.5C30.9 50.2 69 31.4 111.3 31.4S191.7 50.1 218.1 80H249C222.6 35.1 176.2 4.1 122.5 0z"/><path opacity=".15" fill="#FFF" d="M1432.4 80c-5.8-1.7-11.6-2.9-17.3-3.7-3.3 1.3-6.7 2.5-10.2 3.7h27.5z"/><path opacity=".14" fill="#FFF" d="M1415.1 76.3c-13.9-1.7-27.5-.5-39.9 3.7h29.7c3.4-1.2 6.8-2.4 10.2-3.7z"/><path opacity=".15" fill="#FFF" d="M1415.1 76.3c-13.9-1.7-27.5-.5-39.9 3.7h29.7c3.4-1.2 6.8-2.4 10.2-3.7zM1420.8 42.2c-40.9-10.8-82.2-2-108.5 27.5-.9 1-1.7 2-2.6 3 41.1-.2 79.7-11.4 111.1-30.5zM1464.2 80h23.7c-10.3-9.6-21.4-17.5-32.9-23.9-6 3.8-12.3 7.4-18.8 10.7 9.6 3.3 19 7.6 28 13.2z"/><path opacity=".14" fill="#FFF" d="M1436.3 66.8c6.5-3.3 12.8-6.9 18.8-10.7-11.2-6.2-22.8-10.8-34.3-13.9-31.3 19-69.9 30.3-111.1 30.5-1.9 2.4-3.8 4.8-5.5 7.3h36.2c25.4-20.8 61.2-24.9 95.9-13.2z"/><path opacity=".15" fill="#FFF" d="M1436.3 66.8c6.5-3.3 12.8-6.9 18.8-10.7-11.2-6.2-22.8-10.8-34.3-13.9-31.3 19-69.9 30.3-111.1 30.5-1.9 2.4-3.8 4.8-5.5 7.3h36.2c25.4-20.8 61.2-24.9 95.9-13.2z"/><path opacity=".18" fill="#FFF" d="M1491.6 80h28.4V44.1c-11 10.5-20.6 22.6-28.4 35.9z"/><path opacity=".15" fill="#FFF" d="M1045 18.3c48.8-6.1 93.5 20.1 111.9 61.7h24.9c-18.9-50-70.9-82.3-127.9-75.1-46 5.8-83.3 35.7-100.1 75.1h4.4c15.9-32.5 47.9-56.8 86.8-61.7z"/><path opacity=".15" fill="#FFF" d="M1142.6 0h-21.4c34.3 14.5 61.7 43.2 74.5 80h30.6c-.9-3.1-1.9-6.2-3-9.2-35.1-16.5-63.2-41.3-80.7-70.8zM1018.5 0h-23.1c-27.7 19.4-48.9 47.6-60 80h5.1c14-35.9 42.1-65.3 78-80zM1169.9 0h-17.5c15.1 21.1 36.5 38.9 62.4 51.6-11-20.7-26.4-38.3-44.9-51.6z"/><path opacity=".14" fill="#FFF" d="M1152.4 0h-9.8c17.5 29.5 45.6 54.3 80.7 70.8-2.4-6.7-5.3-13.1-8.6-19.2-25.8-12.7-47.2-30.5-62.3-51.6z"/><path opacity=".15" fill="#FFF" d="M1152.4 0h-9.8c17.5 29.5 45.6 54.3 80.7 70.8-2.4-6.7-5.3-13.1-8.6-19.2-25.8-12.7-47.2-30.5-62.3-51.6zM1032.9 57.4c21.5 0 40.9 8.6 55 22.6h19.3c-16-19.1-40.2-31.3-67.2-31.3-26.9 0-50.8 12.2-66.5 31.3h4.9c13.8-13.9 33.1-22.6 54.5-22.6z"/></svg>