<?xml version="1.0" encoding="utf-8"?>
<!-- Generator: Adobe Illustrator 16.0.4, SVG Export Plug-In . SVG Version: 6.00 Build 0)  -->
<!DOCTYPE svg PUBLIC "-//W3C//DTD SVG 1.1//EN" "http://www.w3.org/Graphics/SVG/1.1/DTD/svg11.dtd">
<svg version="1.1" id="Layer_1" xmlns="http://www.w3.org/2000/svg" xmlns:xlink="http://www.w3.org/1999/xlink" x="0px" y="0px"
	 width="1520px" height="80px" viewBox="0 0 1520 80" enable-background="new 0 0 1520 80" xml:space="preserve">
<path opacity="0.16" fill="#FFFFFF" d="M267.7,67.6c53.5,24.7,117,1.6,141.9-51.7C412,10.7,414,5.4,415.5,0h-3
	c-1.4,5.2-3.2,10.3-5.6,15.4c-22.2,47.5-78.8,68.2-126.5,46.1C253.7,49.2,235.5,26.2,228.5,0h-18.6C218,28.8,238.3,54,267.7,67.6z"
	/>
<path opacity="0.16" fill="#FFFFFF" d="M342.5,46.8c22.3-8.1,38.2-25.9,44.8-46.8h-3.1c-6.6,16.9-20.1,31-38.5,37.7
	C312.1,49.9,275,33.1,262.2,0h-14.9c0.3,1.1,0.7,2.2,1.1,3.3C262.3,41.2,304.5,60.7,342.5,46.8z"/>
<path opacity="0.16" fill="#FFFFFF" d="M354.1,0h-13.3c-7.6,3-16.2,3.1-24,0h-8.7c0.5,0.4,0.9,0.7,1.4,1.1
	C323.3,11.1,341.6,10.2,354.1,0z"/>
<path opacity="0.16" fill="#FFFFFF" d="M307.4,11.9c20.5,15.1,49.3,10.8,64.4-9.6c0.6-0.8,1.1-1.5,1.6-2.3h-11.1
	c-14,15.4-37.7,18-54.9,5.4c-2.2-1.6-4.2-3.4-6-5.4h-5.3C299,4.5,302.8,8.5,307.4,11.9z"/>
<path opacity="0.15" fill="#FFFFFF" d="M540.8,18.7c53.6-0.9,98.9,24.2,119.2,61.3h30.3C669.1,35.4,616.4,4.7,553.7,5.7
	c-60.4,1-113.5,31.4-139,74.3h5.1C443.6,44.4,489.2,19.6,540.8,18.7z"/>
<path opacity="0.15" fill="#FFFFFF" d="M713,0h-52.9c33.6,18.6,58.6,46.7,69.9,80h40.3C761,48.6,740.8,21,713,0z"/>
<path opacity="0.15" fill="#FFFFFF" d="M460.8,0h-18.5c-30.3,21-53.7,48.7-66.8,80h5.9C396.6,46.9,424.9,18.7,460.8,0z"/>
<path opacity="0.15" fill="#FFFFFF" d="M499.3,80h40.1C526.6,76.2,512.4,76.2,499.3,80z"/>
<path opacity="0.15" fill="#FFFFFF" d="M464.6,74.3c35.2-28.9,90.6-29.8,123.9-2.1c3,2.5,5.7,5.1,8.1,7.9h14.2
	c-2.8-3.2-5.9-6.3-9.4-9.2c-37.3-31.1-99.5-30-138.9,2.4c-2.6,2.2-5.1,4.4-7.4,6.8h3.2C460.3,78,462.4,76.1,464.6,74.3z"/>
<path opacity="0.14" fill="#FFFFFF" d="M1284,33.2c-34.5-2-64.8-14.4-86.6-33.2h-10.6c24.7,27,63.3,45.3,108.2,47.9
	c52.6,3,101.3-16.2,131.9-47.9h-35.6C1364.1,22.5,1325.4,35.6,1284,33.2z"/>
<path opacity="0.14" fill="#FFFFFF" d="M1420.8,42.2c11.6,3.1,23.1,7.7,34.3,13.9c23.6-15.1,43.2-34.2,57.2-56.1h-43.9
	C1455.9,16.4,1439.6,30.7,1420.8,42.2z"/>
<path opacity="0.14" fill="#FFFFFF" d="M1309.7,72.7c-4.7,0-9.4-0.1-14.1-0.4c-29.7-1.7-57.2-9.1-80.8-20.7
	c3.3,6.1,6.1,12.6,8.6,19.2c7.3,3.4,15,6.5,22.9,9.2h58C1305.9,77.5,1307.7,75,1309.7,72.7z"/>
<path opacity="0.14" fill="#FFFFFF" d="M1415.1,76.3c7.3-2.8,14.4-6,21.3-9.5c-34.7-11.8-70.6-7.6-95.9,13.2h34.8
	C1387.5,75.8,1401.2,74.6,1415.1,76.3z"/>
<path opacity="0.14" fill="#FFFFFF" d="M1315.7,0h-56.3C1277.5,4.4,1297.1,4.5,1315.7,0z"/>
<path opacity="0.2" fill="#FFFFFF" d="M808.8,80h63.3c24.5-11.6,41.4-36.3,41.4-64.8c0-5.2-0.6-10.3-1.6-15.2h-14.3
	c1.3,5,2,10.2,2,15.6c0,35.4-29.2,64.1-65.1,64.1c-36,0-65.2-28.7-65.2-64.1c0-5.4,0.7-10.6,2-15.6H769c-1.1,4.9-1.6,10-1.6,15.2
	C767.3,43.7,784.2,68.4,808.8,80z"/>
<path opacity="0.2" fill="#FFFFFF" d="M942.7,14.8c0-5-0.4-9.9-1.2-14.8h-18.1c1,5,1.5,10.1,1.5,15.3c0,26.4-12.7,49.8-32.4,64.7
	h22.4C932.1,63.4,942.7,40.3,942.7,14.8z"/>
<path opacity="0.2" fill="#FFFFFF" d="M759,15.3c0-5.2,0.5-10.3,1.5-15.3h-2.6c-0.8,4.8-1.2,9.7-1.2,14.8
	c0,25.5,10.7,48.6,27.8,65.2h6.9C771.7,65.1,759,41.7,759,15.3z"/>
<path opacity="0.18" fill="#FFFFFF" d="M32.3,80h53.9c8.3-2,16.8-3,25.7-3c8.8,0,17.4,1,25.7,3h52.4c-21.7-17.6-49-28.1-78.8-28.1
	C81.3,51.9,53.9,62.4,32.3,80z"/>
<path opacity="0.18" fill="#FFFFFF" d="M110.3-0.5c-4.1,0-8.1,0.2-12.1,0.5h24.3C118.5-0.3,114.4-0.5,110.3-0.5z"/>
<path opacity="0.18" fill="#FFFFFF" d="M122.5,0H98.2C60.4,2.9,26.2,19.1,0,44.2V80h4.5C30.9,50.2,69,31.4,111.3,31.4
	c42.3,0,80.4,18.7,106.8,48.6H249C222.6,35.1,176.2,4.1,122.5,0z"/>
<path opacity="0.15" fill="#FFFFFF" d="M1432.4,80c-5.8-1.7-11.6-2.9-17.3-3.7c-3.3,1.3-6.7,2.5-10.2,3.7H1432.4z"/>
<path opacity="0.14" fill="#FFFFFF" d="M1415.1,76.3c-13.9-1.7-27.5-0.5-39.9,3.7h29.7C1408.3,78.8,1411.7,77.6,1415.1,76.3z"/>
<path opacity="0.15" fill="#FFFFFF" d="M1415.1,76.3c-13.9-1.7-27.5-0.5-39.9,3.7h29.7C1408.3,78.8,1411.7,77.6,1415.1,76.3z"/>
<path opacity="0.15" fill="#FFFFFF" d="M1420.8,42.2c-40.9-10.8-82.2-2-108.5,27.5c-0.9,1-1.7,2-2.6,3
	C1350.8,72.5,1389.4,61.3,1420.8,42.2z"/>
<path opacity="0.15" fill="#FFFFFF" d="M1464.2,80h23.7c-10.3-9.6-21.4-17.5-32.9-23.9c-6,3.8-12.3,7.4-18.8,10.7
	C1445.8,70.1,1455.2,74.4,1464.2,80z"/>
<path opacity="0.14" fill="#FFFFFF" d="M1436.3,66.8c6.5-3.3,12.8-6.9,18.8-10.7c-11.2-6.2-22.8-10.8-34.3-13.9
	c-31.3,19-69.9,30.3-111.1,30.5c-1.9,2.4-3.8,4.8-5.5,7.3h36.2C1365.8,59.2,1401.6,55.1,1436.3,66.8z"/>
<path opacity="0.15" fill="#FFFFFF" d="M1436.3,66.8c6.5-3.3,12.8-6.9,18.8-10.7c-11.2-6.2-22.8-10.8-34.3-13.9
	c-31.3,19-69.9,30.3-111.1,30.5c-1.9,2.4-3.8,4.8-5.5,7.3h36.2C1365.8,59.2,1401.6,55.1,1436.3,66.8z"/>
<path opacity="0.18" fill="#FFFFFF" d="M1491.6,80h28.4V44.1C1509,54.6,1499.4,66.7,1491.6,80z"/>
<path opacity="0.15" fill="#FFFFFF" d="M1045,18.3c48.8-6.1,93.5,20.1,111.9,61.7h24.9c-18.9-50-70.9-82.3-127.9-75.1
	c-46,5.8-83.3,35.7-100.1,75.1h4.4C974.1,47.5,1006.1,23.2,1045,18.3z"/>
<path opacity="0.15" fill="#FFFFFF" d="M1142.6,0h-21.4c34.3,14.5,61.7,43.2,74.5,80h30.6c-0.9-3.1-1.9-6.2-3-9.2
	C1188.2,54.3,1160.1,29.5,1142.6,0z"/>
<path opacity="0.15" fill="#FFFFFF" d="M1018.5,0h-23.1c-27.7,19.4-48.9,47.6-60,80h5.1C954.5,44.1,982.6,14.7,1018.5,0z"/>
<path opacity="0.15" fill="#FFFFFF" d="M1169.9,0h-17.5c15.1,21.1,36.5,38.9,62.4,51.6C1203.8,30.9,1188.4,13.3,1169.9,0z"/>
<path opacity="0.14" fill="#FFFFFF" d="M1152.4,0h-9.8c17.5,29.5,45.6,54.3,80.7,70.8c-2.4-6.7-5.3-13.1-8.6-19.2
	C1188.9,38.9,1167.5,21.1,1152.4,0z"/>
<path opacity="0.15" fill="#FFFFFF" d="M1152.4,0h-9.8c17.5,29.5,45.6,54.3,80.7,70.8c-2.4-6.7-5.3-13.1-8.6-19.2
	C1188.9,38.9,1167.5,21.1,1152.4,0z"/>
<path opacity="0.15" fill="#FFFFFF" d="M1032.9,57.4c21.5,0,40.9,8.6,55,22.6h19.3c-16-19.1-40.2-31.3-67.2-31.3
	c-26.9,0-50.8,12.2-66.5,31.3h4.9C992.2,66.1,1011.5,57.4,1032.9,57.4z"/>
</svg>
