<?xml version="1.0" encoding="utf-8"?>
<!-- Generator: Adobe Illustrator 16.0.4, SVG Export Plug-In . SVG Version: 6.00 Build 0)  -->
<!DOCTYPE svg PUBLIC "-//W3C//DTD SVG 1.1//EN" "http://www.w3.org/Graphics/SVG/1.1/DTD/svg11.dtd">
<svg version="1.1" id="Layer_1" xmlns="http://www.w3.org/2000/svg" xmlns:xlink="http://www.w3.org/1999/xlink" x="0px" y="0px"
	 width="700px" height="140px" viewBox="0 0 700 140" enable-background="new 0 0 700 140" xml:space="preserve">
<path fill="#FFFFFF" d="M386.2,95.8c0,0,7.1,8.1,20,8.1c11.7,0,19-7.6,19-17c0-21.9-33.5-16.6-33.5-33.9c0-6.4,5.8-12.9,15.5-12.9
	c8.7,0,14.3,5.6,14.3,5.6l2.2-3.5c0,0-6-6.1-16.7-6.1c-11.9,0-19.7,8.2-19.7,17c0,20.5,33.5,15.4,33.5,34c0,7.9-6.5,12.9-14.6,12.9
	c-10.9,0-17.5-7.3-17.5-7.3L386.2,95.8z M335.6,95.8c0,0,7.1,8.1,20,8.1c11.7,0,19-7.6,19-17c0-21.9-33.5-16.6-33.5-33.9
	c0-6.4,5.8-12.9,15.5-12.9c8.7,0,14.3,5.6,14.3,5.6l2.2-3.5c0,0-6-6.1-16.7-6.1c-11.9,0-19.7,8.2-19.7,17c0,20.5,33.5,15.4,33.5,34
	c0,7.9-6.5,12.9-14.6,12.9c-10.9,0-17.5-7.3-17.5-7.3L335.6,95.8z M299.3,41.9c0,0,1.4,5.1,2.4,7.9l9.9,26.6h-25l10-26.6
	c1-2.8,2.4-7.9,2.4-7.9H299.3z M321.6,102.8h4.3l-24.5-65.6h-4.3l-24.5,65.6h4.3l8.4-22.7h27.8L321.6,102.8z M232.9,71.9V41h17.3
	c9.6,0,15.9,5.5,15.9,15.4c0,9.8-6.4,15.5-15.9,15.5H232.9z M228.8,102.8h4V75.6h17.5c11.4,0,19.9-7.4,19.9-19.3
	c0-11.9-8.5-19.1-19.9-19.1h-21.5V102.8z M146.5,102.8h4l4-50c0.3-3.2,0.3-8.9,0.3-8.9h0.2c0,0,2.1,5.8,3.5,8.9L176,90.1h4.1
	l17.6-37.4c1.5-3.2,3.4-8.7,3.4-8.7h0.2c0,0,0,5.5,0.3,8.7l4,50h4l-5.2-65.6h-3.9l-19.1,41.2c-1.5,3.2-3.2,7.4-3.2,7.4h-0.2
	c0,0-1.7-4.2-3.2-7.4l-19.1-41.2h-3.9L146.5,102.8z M70,69.5C70,52.8,83,39.9,99,39.9s28.9,12.8,28.9,29.6
	c0,17.2-12.9,30.5-28.9,30.5S70,86.8,70,69.5 M65.8,69.5c0,19.3,14.9,34.4,33.2,34.4c18.3,0,33.2-15.1,33.2-34.4
	c0-18.8-14.9-33.4-33.2-33.4C80.7,36.1,65.8,50.7,65.8,69.5 M0,69.5c0,19,13.8,34.4,32.9,34.4c15.9,0,24.7-9.9,24.7-9.9l-2.5-2.8
	c0,0-8.1,8.9-22.2,8.9c-16.5,0-28.7-13.5-28.7-30.5c0-17,12.3-29.6,28.4-29.6c13.1,0,20.9,7.4,20.9,7.4l2.4-3c0,0-7.9-8.2-23.4-8.2
	C14,36.1,0,50.5,0,69.5"/>
<path fill="#FFFFFF" d="M83.9,71.6L83.9,71.6l-0.3-0.1L78,70.7l0,0l-0.1,0v0l-5.3-0.8v0l-0.6-0.1v0l-3.7-0.5l0-0.1l0,0l23.8-3.6
	l-8.1-11l10.8,8l0.3,0.2l1-6.6l0.1-0.4l0.1-0.6l0.1-0.9l0-0.3l0.8-5.6l0-0.1l0.4-2.4l0.5-3.4l0.5-3.7l0.1,0l0.1,0l0.5,3.7l0.8,5.2
	l0.1,0.6l0,0.1l0.8,5.6l0,0.3l0.1,0.9l0.1,0.6l0.1,0.4l1,6.6l11.1-8.2l-8.1,11l23.8,3.6l0,0l0,0.1l-3.7,0.5v0l-0.6,0.1v0l-5.3,0.8
	l0,0l-0.1,0l0,0l-5.6,0.8l-0.3,0l0,0l-0.9,0.1l0,0l-0.6,0.1l0,0l-0.4,0.1l0,0l-6.6,1l3.6,4.8l4.6,6.2l0,0l-11-8.1l0,0l0,0l-1,6.5
	l0,0l-0.1,0.4l0,0l-0.1,0.6h0l-0.1,0.9h0l0,0.3l-0.8,5.6h0l0,0.1h0l-0.8,5.3l0,0l-0.1,0.6h0l-0.5,3.7l-0.1,0l-0.1,0l-0.5-3.7h0
	l-0.1-0.6l0,0l-0.8-5.3h0l0-0.1h0l-0.8-5.6l0-0.3h0l-0.1-0.9h0l-0.1-0.6l0,0l-0.1-0.4l0,0l-1-6.6l-3.4,2.6l-7.7,5.6l8.1-11l0,0l0,0
	l-6.5-1l0,0l-0.4-0.1l0,0l-0.6-0.1l0,0L83.9,71.6z M96.9,65.6c0.5-0.3,1.2-0.5,1.8-0.5v-25L96.7,54l-1.3,8.9L96.9,65.6z M95.3,67.1
	c0.2-0.3,0.3-0.5,0.5-0.7l-4.6-4.6L85,55.6l7.4,9.9l0,0l0,0L95.3,67.1z M95.2,71.1c-0.3-0.5-0.4-1.1-0.5-1.7l-24.9-0.1l13.8,2
	l8.8,1.3L95.2,71.1z M96.7,72.7c-0.3-0.2-0.5-0.3-0.7-0.5l-1,1l0,0l0,0L87.2,81l-2,2l10-7.5L96.7,72.7z M100.7,72.8
	c-0.5,0.3-1.1,0.4-1.7,0.5v25l2.1-13.8l1.3-8.7l0,0L100.7,72.8z M102.3,71.2c-0.1,0.3-0.3,0.5-0.5,0.7l1.1,1.1l0,0l0,0l9.7,9.7
	l-7.5-10L102.3,71.2z M102.4,67.3l2.9-1.6l0,0L114,67l13.8,2.1h-25C102.8,68.4,102.7,67.9,102.4,67.3 M98.8,65.4
	c2.1,0,3.8,1.7,3.8,3.8c0,2.1-1.7,3.8-3.8,3.8c-2.1,0-3.8-1.7-3.8-3.8C95.1,67.1,96.8,65.4,98.8,65.4 M98.8,67.2c1.1,0,2,0.9,2,2
	c0,1.1-0.9,2-2,2c-1.1,0-2-0.9-2-2C96.9,68.1,97.8,67.2,98.8,67.2 M101.6,66.3l1.1-1.1l0,0l0,0l9.7-9.7l-10,7.5l-1.6,2.8
	C101.2,65.9,101.4,66.1,101.6,66.3"/>
<path fill="#EB6608" d="M511.2,130c33,0,60-27,60-60s-27-60-60-60c-33,0-60,27-60,60S478.2,130,511.2,130"/>
<path fill="#FFFFFF" d="M491.2,104h39.4v-8.4h-15V35.4h-8.6l-16.4,15.9l5.8,6l6.4-6.3c2.5-2.4,3.3-4,3.3-4h0.2c0,0-0.1,2.1-0.1,4.3
	v44.3h-15.2V104z"/>
</svg>
