<?xml version="1.0" encoding="utf-8"?>
<!-- Generator: Adobe Illustrator 16.0.4, SVG Export Plug-In . SVG Version: 6.00 Build 0)  -->
<!DOCTYPE svg PUBLIC "-//W3C//DTD SVG 1.1//EN" "http://www.w3.org/Graphics/SVG/1.1/DTD/svg11.dtd">
<svg version="1.1" id="Layer_1" xmlns="http://www.w3.org/2000/svg" xmlns:xlink="http://www.w3.org/1999/xlink" x="0px" y="0px"
	 width="700px" height="140px" viewBox="0 0 700 140" enable-background="new 0 0 700 140" xml:space="preserve">
<path fill="#EB6608" d="M465.5,130c33,0,60-27,60-60s-27-60-60-60s-60,27-60,60S432.5,130,465.5,130"/>
<path fill="#FFFFFF" d="M445.5,104h39.4v-8.4h-15V35.4h-8.6l-16.4,15.9l5.8,6l6.4-6.3c2.5-2.4,3.3-4,3.3-4h0.2c0,0-0.1,2.1-0.1,4.3
	v44.3h-15.2v8.4H445.5z"/>
<g>
	<defs>
		<rect id="SVGID_1_" y="36" width="382.5" height="68"/>
	</defs>
	<clipPath id="SVGID_2_">
		<use xlink:href="#SVGID_1_"  overflow="visible"/>
	</clipPath>
	<path clip-path="url(#SVGID_2_)" fill="#FFFFFF" d="M344.8,102.9h37.8v-3.8h-33.7V71.6H375v-3.8h-26.2v-27h31.9v-3.8h-36V102.9z
		 M290.5,70V40.9h15c5.3,0,7.3,0.5,9.2,1.3c4.8,2.2,7.7,6.9,7.7,12.7c0,8.9-5.4,15.1-14.1,15.1H290.5z M286.5,102.9h4V73.8h18.9
		l15.6,29.1h4.8l-14.7-27.3c-0.8-1.6-1.5-2.3-1.5-2.3V73c7.7-1.7,13.1-8.7,13.1-18.1c0-7.5-3.7-13.1-9.1-15.8c-2.6-1.3-5.7-2-11.8-2
		h-19.3V102.9z M207.8,69.5c0-16.8,13-29.7,29-29.7c16.1,0,29,12.9,29,29.7c0,17.3-13,30.6-29,30.6
		C220.8,100.2,207.8,86.8,207.8,69.5 M203.6,69.5c0,19.3,14.9,34.5,33.2,34.5c18.3,0,33.2-15.1,33.2-34.5
		c0-18.9-14.9-33.5-33.2-33.5C218.5,36,203.6,50.7,203.6,69.5 M164.5,102.9h35.4v-3.8h-31.4v-62h-4V102.9z M113.6,71.9v-31h17.4
		c9.6,0,16,5.5,16,15.4c0,9.9-6.4,15.6-16,15.6H113.6z M109.5,102.9h4V75.6h17.6c11.5,0,20-7.4,20-19.3c0-11.9-8.5-19.2-20-19.2
		h-21.6V102.9z M48.5,102.9h4.8l15-24.9c2-3.3,3.9-7.1,3.9-7.1h0.2l4.2,7l15.2,25h4.8L75.4,68.1l19.1-31h-4.9L76.9,58.1
		c-2,3.2-4,7.3-4,7.3h-0.2c0,0-2.4-4.1-4.3-7.3L55.7,37.1h-4.9l18.9,31L48.5,102.9z M0,102.9h37.8v-3.8H4V71.6h26.2v-3.8H4v-27H36
		v-3.8H0V102.9z"/>
</g>
</svg>
