<?xml version="1.0" encoding="utf-8"?>
<!-- Generator: Adobe Illustrator 16.0.4, SVG Export Plug-In . SVG Version: 6.00 Build 0)  -->
<!DOCTYPE svg PUBLIC "-//W3C//DTD SVG 1.1//EN" "http://www.w3.org/Graphics/SVG/1.1/DTD/svg11.dtd">
<svg version="1.1" id="Layer_1" xmlns="http://www.w3.org/2000/svg" xmlns:xlink="http://www.w3.org/1999/xlink" x="0px" y="0px"
	 width="700px" height="140px" viewBox="0 0 700 140" enable-background="new 0 0 700 140" xml:space="preserve">
<g>
	<g>
		<defs>
			<rect id="SVGID_1_" x="0.7" y="35.6" width="698" height="68.8"/>
		</defs>
		<clipPath id="SVGID_2_">
			<use xlink:href="#SVGID_1_"  overflow="visible"/>
		</clipPath>
		<path clip-path="url(#SVGID_2_)" fill="#FFFFFF" d="M669.3,96.8h29.4v-2.9h-26.3V72.4h20.4v-2.9h-20.4v-21h24.9v-2.9h-28V96.8z
			 M627.1,71.2V48.5h11.7c4.1,0,5.7,0.4,7.2,1c3.7,1.7,6,5.3,6,9.9c0,6.9-4.2,11.8-11,11.8H627.1z M624,96.8h3.1V74.1h14.7L654,96.8
			h3.7l-11.5-21.3c-0.7-1.2-1.2-1.8-1.2-1.8v-0.1c6-1.3,10.2-6.8,10.2-14.1c0-5.9-2.9-10.2-7.1-12.3c-2-1-4.5-1.5-9.2-1.5h-15V96.8z
			 M562.7,70.8c0-13.1,10.1-23.1,22.6-23.1c12.5,0,22.6,10,22.6,23.1c0,13.5-10.1,23.8-22.6,23.8C572.8,94.7,562.7,84.3,562.7,70.8
			 M559.4,70.8c0,15.1,11.6,26.8,25.9,26.8c14.3,0,25.9-11.8,25.9-26.8c0-14.7-11.6-26.1-25.9-26.1C571,44.7,559.4,56.1,559.4,70.8
			 M529,96.8h27.6v-2.9h-24.4V45.6H529V96.8z M489.3,72.6V48.5h13.5c7.5,0,12.4,4.3,12.4,12c0,7.7-5,12.1-12.4,12.1H489.3z
			 M486.2,96.8h3.1V75.6H503c8.9,0,15.6-5.8,15.6-15.1c0-9.3-6.7-14.9-15.6-14.9h-16.8V96.8z M438.6,96.8h3.7l11.7-19.4
			c1.5-2.6,3.1-5.6,3.1-5.6h0.1c0,0,1.8,2.9,3.3,5.5l11.8,19.5h3.7l-16.6-27.1l14.8-24.1h-3.8l-9.9,16.3c-1.5,2.5-3.1,5.7-3.1,5.7
			h-0.1c0,0-1.9-3.2-3.4-5.7l-9.8-16.3h-3.8l14.7,24.1L438.6,96.8z M400.9,96.8h29.4v-2.9H404V72.4h20.4v-2.9H404v-21h24.9v-2.9h-28
			V96.8z M362.9,104.3h3.1V35.6h-3.1V104.3z M299.1,91.3c0,0,5.6,6.4,15.7,6.4c9.1,0,14.8-5.9,14.8-13.3c0-17.1-26.2-12.9-26.2-26.5
			c0-5,4.5-10.1,12.1-10.1c6.8,0,11.2,4.4,11.2,4.4l1.8-2.7c0,0-4.7-4.8-13-4.8c-9.3,0-15.4,6.4-15.4,13.2c0,16,26.2,12,26.2,26.5
			c0,6.1-5,10.1-11.4,10.1c-8.5,0-13.7-5.7-13.7-5.7L299.1,91.3z M260.2,91.3c0,0,5.6,6.4,15.7,6.4c9.1,0,14.8-5.9,14.8-13.3
			c0-17.1-26.2-12.9-26.2-26.5c0-5,4.5-10.1,12.1-10.1c6.8,0,11.2,4.4,11.2,4.4l1.8-2.7c0,0-4.7-4.8-13-4.8
			c-9.3,0-15.4,6.4-15.4,13.2c0,16,26.2,12,26.2,26.5c0,6.1-5,10.1-11.4,10.1c-8.5,0-13.7-5.7-13.7-5.7L260.2,91.3z M232.5,49.2
			c0,0,1.1,3.9,1.9,6.1l7.8,20.8h-19.5l7.8-20.8c0.8-2.2,1.9-6.1,1.9-6.1H232.5z M249.9,96.8h3.4l-19.2-51.2h-3.4l-19.2,51.2h3.4
			l6.6-17.7h21.7L249.9,96.8z M181,72.6V48.5h13.5c7.5,0,12.4,4.3,12.4,12c0,7.7-5,12.1-12.4,12.1H181z M177.9,96.8h3.1V75.6h13.7
			c8.9,0,15.6-5.8,15.6-15.1c0-9.3-6.7-14.9-15.6-14.9h-16.8V96.8z M114.1,96.8h3.1l3.1-39.1c0.2-2.5,0.2-6.9,0.2-6.9h0.1
			c0,0,1.6,4.5,2.7,6.9l13.7,29.2h3.2l13.8-29.2c1.2-2.5,2.6-6.8,2.6-6.8h0.1c0,0,0,4.3,0.2,6.8l3.1,39.1h3.1l-4.1-51.2h-3.1
			l-14.9,32.2c-1.2,2.5-2.5,5.8-2.5,5.8h-0.1c0,0-1.3-3.3-2.5-5.8l-14.9-32.2h-3.1L114.1,96.8z M55,70.8c0-13.1,10.1-23.1,22.6-23.1
			s22.6,10,22.6,23.1c0,13.5-10.1,23.8-22.6,23.8S55,84.3,55,70.8 M51.7,70.8c0,15.1,11.6,26.8,25.9,26.8
			c14.3,0,25.9-11.8,25.9-26.8c0-14.7-11.6-26.1-25.9-26.1C63.3,44.7,51.7,56.1,51.7,70.8 M0.7,70.8c0,14.8,10.8,26.8,25.7,26.8
			c12.4,0,19.3-7.8,19.3-7.8l-2-2.2c0,0-6.4,7-17.3,7C13.5,94.7,4,84.1,4,70.8c0-13.2,9.6-23.1,22.2-23.1c10.2,0,16.3,5.8,16.3,5.8
			l1.9-2.3c0,0-6.1-6.4-18.3-6.4C11.7,44.7,0.7,56,0.7,70.8"/>
		<path clip-path="url(#SVGID_2_)" fill="#FFFFFF" d="M65.1,72.6L65.1,72.6l-0.2-0.1l-4.4-0.7l0,0l-0.1,0v0l-4.2-0.6v0l-0.4-0.1v0
			l-2.9-0.4l0-0.1l0,0l18.9-2.8L65.2,59l8.6,6.3l0.2,0.1l0.8-5.2l0-0.3l0.1-0.4l0.1-0.7l0-0.2l0.7-4.5l0-0.1l0.3-1.9l0.4-2.7
			l0.4-2.9l0.1,0l0.1,0l0.4,2.9l0.6,4.1l0.1,0.5l0,0.1l0.7,4.5l0,0.2l0.1,0.7L79,60l0,0.3l0.8,5.2l8.8-6.5l-6.5,8.8l18.9,2.8l0,0
			l0,0.1l-2.9,0.4v0l-0.4,0.1v0l-4.2,0.6l0,0l-0.1,0l0,0L89,72.6l-0.2,0l0,0l-0.7,0.1l0,0l-0.4,0.1l0,0l-0.3,0l0,0l-5.3,0.8l2.9,3.8
			l3.6,4.9l0,0l-8.8-6.5l0,0l0,0l-0.8,5.2h0l0,0.3l0,0l-0.1,0.5l0,0l-0.1,0.7h0l0,0.2l-0.7,4.5l0,0l0,0.1h0l-0.6,4.2l0,0L77.5,92h0
			L77,94.9l-0.1,0l-0.1,0L76.4,92h0l-0.1-0.4l0,0l-0.6-4.2h0l0-0.1h0l-0.7-4.5l0-0.2h0l-0.1-0.7l0,0l-0.1-0.5l0,0l0-0.3h0L74,75.9
			l-2.7,2l-6.1,4.5l6.5-8.8l0,0l0,0l-5.2-0.8l0,0l-0.3,0l0,0l-0.5-0.1l0,0L65.1,72.6z M75.4,67.9c0.4-0.2,0.9-0.4,1.5-0.4V47.7
			l-1.6,11l-1,7L75.4,67.9z M74.1,69.1c0.1-0.2,0.3-0.4,0.4-0.6l-3.6-3.6l-5-5l5.9,7.9l0,0l0,0L74.1,69.1z M74,72.2
			c-0.2-0.4-0.3-0.8-0.4-1.3l-19.8-0.1l10.9,1.6l7,1L74,72.2z M75.2,73.5c-0.2-0.1-0.4-0.3-0.6-0.4l-0.8,0.8l0,0l0,0l-6.2,6.2
			l-1.6,1.6l7.9-5.9L75.2,73.5z M78.4,73.6c-0.4,0.2-0.9,0.3-1.4,0.4v19.8l1.6-11l1-6.9l0,0L78.4,73.6z M79.7,72.3
			c-0.1,0.2-0.3,0.4-0.4,0.6l0.9,0.9l0,0l0,0l7.7,7.7l-5.9-7.9L79.7,72.3z M79.8,69.2L82,68l0,0l6.9,1l11,1.6H80.1
			C80.1,70.1,80,69.7,79.8,69.2 M76.9,67.7c1.6,0,3,1.3,3,3c0,1.7-1.3,3-3,3s-3-1.3-3-3C73.9,69.1,75.3,67.7,76.9,67.7 M76.9,69.1
			c0.9,0,1.6,0.7,1.6,1.6c0,0.9-0.7,1.6-1.6,1.6c-0.9,0-1.6-0.7-1.6-1.6C75.4,69.8,76.1,69.1,76.9,69.1 M79.1,68.4l0.9-0.9l0,0l0,0
			l7.7-7.7l-7.9,5.9L78.6,68C78.8,68.1,79,68.2,79.1,68.4"/>
	</g>
</g>
</svg>
