<svg xmlns="http://www.w3.org/2000/svg" xmlns:xlink="http://www.w3.org/1999/xlink" width="700" height="140" viewBox="0 0 700 140"><defs><path id="a" d="M.7 35.6h698v68.8H.7z"/></defs><clipPath id="b"><use xlink:href="#a" overflow="visible"/></clipPath><path clip-path="url(#b)" fill="#FFF" d="M669.3 96.8h29.4v-2.9h-26.3V72.4h20.4v-2.9h-20.4v-21h24.9v-2.9h-28v51.2zm-42.2-25.6V48.5h11.7c4.1 0 5.7.4 7.2 1 3.7 1.7 6 5.3 6 9.9 0 6.9-4.2 11.8-11 11.8h-13.9zM624 96.8h3.1V74.1h14.7L654 96.8h3.7l-11.5-21.3c-.7-1.2-1.2-1.8-1.2-1.8v-.1c6-1.3 10.2-6.8 10.2-14.1 0-5.9-2.9-10.2-7.1-12.3-2-1-4.5-1.5-9.2-1.5h-15v51.1zm-61.3-26c0-13.1 10.1-23.1 22.6-23.1 12.5 0 22.6 10 22.6 23.1 0 13.5-10.1 23.8-22.6 23.8-12.5.1-22.6-10.3-22.6-23.8m-3.3 0c0 15.1 11.6 26.8 25.9 26.8 14.3 0 25.9-11.8 25.9-26.8 0-14.7-11.6-26.1-25.9-26.1-14.3 0-25.9 11.4-25.9 26.1m-30.4 26h27.6v-2.9h-24.4V45.6H529v51.2zm-39.7-24.2V48.5h13.5c7.5 0 12.4 4.3 12.4 12s-5 12.1-12.4 12.1h-13.5zm-3.1 24.2h3.1V75.6H503c8.9 0 15.6-5.8 15.6-15.1s-6.7-14.9-15.6-14.9h-16.8v51.2zm-47.6 0h3.7L454 77.4c1.5-2.6 3.1-5.6 3.1-5.6h.1s1.8 2.9 3.3 5.5l11.8 19.5h3.7l-16.6-27.1 14.8-24.1h-3.8l-9.9 16.3c-1.5 2.5-3.1 5.7-3.1 5.7h-.1s-1.9-3.2-3.4-5.7l-9.8-16.3h-3.8L455 69.7l-16.4 27.1zm-37.7 0h29.4v-2.9H404V72.4h20.4v-2.9H404v-21h24.9v-2.9h-28v51.2zm-38 7.5h3.1V35.6h-3.1v68.7zm-63.8-13s5.6 6.4 15.7 6.4c9.1 0 14.8-5.9 14.8-13.3 0-17.1-26.2-12.9-26.2-26.5 0-5 4.5-10.1 12.1-10.1 6.8 0 11.2 4.4 11.2 4.4l1.8-2.7s-4.7-4.8-13-4.8c-9.3 0-15.4 6.4-15.4 13.2 0 16 26.2 12 26.2 26.5 0 6.1-5 10.1-11.4 10.1-8.5 0-13.7-5.7-13.7-5.7l-2.1 2.5zm-38.9 0s5.6 6.4 15.7 6.4c9.1 0 14.8-5.9 14.8-13.3 0-17.1-26.2-12.9-26.2-26.5 0-5 4.5-10.1 12.1-10.1 6.8 0 11.2 4.4 11.2 4.4l1.8-2.7s-4.7-4.8-13-4.8c-9.3 0-15.4 6.4-15.4 13.2 0 16 26.2 12 26.2 26.5 0 6.1-5 10.1-11.4 10.1-8.5 0-13.7-5.7-13.7-5.7l-2.1 2.5zm-27.7-42.1s1.1 3.9 1.9 6.1l7.8 20.8h-19.5l7.8-20.8c.8-2.2 1.9-6.1 1.9-6.1h.1zm17.4 47.6h3.4l-19.2-51.2h-3.4l-19.2 51.2h3.4l6.6-17.7h21.7l6.7 17.7zM181 72.6V48.5h13.5c7.5 0 12.4 4.3 12.4 12s-5 12.1-12.4 12.1H181zm-3.1 24.2h3.1V75.6h13.7c8.9 0 15.6-5.8 15.6-15.1s-6.7-14.9-15.6-14.9h-16.8v51.2zm-63.8 0h3.1l3.1-39.1c.2-2.5.2-6.9.2-6.9h.1s1.6 4.5 2.7 6.9L137 86.9h3.2L154 57.7c1.2-2.5 2.6-6.8 2.6-6.8h.1s0 4.3.2 6.8l3.1 39.1h3.1L159 45.6h-3.1L141 77.8c-1.2 2.5-2.5 5.8-2.5 5.8h-.1s-1.3-3.3-2.5-5.8L121 45.6h-3.1l-3.8 51.2zM55 70.8c0-13.1 10.1-23.1 22.6-23.1s22.6 10 22.6 23.1c0 13.5-10.1 23.8-22.6 23.8S55 84.3 55 70.8m-3.3 0c0 15.1 11.6 26.8 25.9 26.8 14.3 0 25.9-11.8 25.9-26.8 0-14.7-11.6-26.1-25.9-26.1-14.3 0-25.9 11.4-25.9 26.1m-51 0c0 14.8 10.8 26.8 25.7 26.8 12.4 0 19.3-7.8 19.3-7.8l-2-2.2s-6.4 7-17.3 7C13.5 94.7 4 84.1 4 70.8c0-13.2 9.6-23.1 22.2-23.1 10.2 0 16.3 5.8 16.3 5.8l1.9-2.3s-6.1-6.4-18.3-6.4C11.7 44.7.7 56 .7 70.8"/><path clip-path="url(#b)" fill="#FFF" d="M65.1 72.6l-.2-.1-4.4-.7h-.1l-4.2-.6-.4-.1-2.9-.4v-.1l18.9-2.8-6.6-8.8 8.6 6.3.2.1.8-5.2v-.3l.1-.4.1-.7v-.2l.7-4.5V54l.3-1.9.4-2.7.4-2.9h.2l.4 2.9.6 4.1.1.5v.1l.7 4.5v.2l.1.7.1.5v.3l.8 5.2 8.8-6.5-6.5 8.8 18.9 2.8v.1l-2.9.4-.4.1-4.2.6h-.1l-4.4.8h-.2l-.7.1-.4.1h-.3l-5.3.8 2.9 3.8 3.6 4.9-8.8-6.5L79 81v.3l-.1.5-.1.7v.2l-.7 4.5v.1l-.6 4.2v.5l-.5 2.9h-.2l-.4-2.9-.1-.4-.6-4.2v-.1l-.7-4.5v-.2l-.1-.7-.1-.5v-.3l-.8-5.2-2.7 2-6.1 4.5 6.5-8.8-5.2-.8h-.3l-.5-.1-.6-.1zm10.3-4.7c.4-.2.9-.4 1.5-.4V47.7l-1.6 11-1 7 1.1 2.2zm-1.3 1.2c.1-.2.3-.4.4-.6l-3.6-3.6-5-5 5.9 7.9 2.3 1.3zm-.1 3.1c-.2-.4-.3-.8-.4-1.3l-19.8-.1 10.9 1.6 7 1 2.3-1.2zm1.2 1.3c-.2-.1-.4-.3-.6-.4l-.8.8-6.2 6.2-1.6 1.6 7.9-5.9 1.3-2.3zm3.2.1c-.4.2-.9.3-1.4.4v19.8l1.6-11 1-6.9-1.2-2.3zm1.3-1.3c-.1.2-.3.4-.4.6l.9.9 7.7 7.7-5.9-7.9-2.3-1.3zm.1-3.1L82 68l6.9 1 11 1.6H80.1c0-.5-.1-.9-.3-1.4m-2.9-1.5c1.6 0 3 1.3 3 3s-1.3 3-3 3-3-1.3-3-3c0-1.6 1.4-3 3-3m0 1.4c.9 0 1.6.7 1.6 1.6 0 .9-.7 1.6-1.6 1.6-.9 0-1.6-.7-1.6-1.6.1-.9.8-1.6 1.6-1.6m2.2-.7l.9-.9 7.7-7.7-7.9 5.9-1.2 2.3c.2.1.4.2.5.4"/></svg>