<svg xmlns="http://www.w3.org/2000/svg" width="700" height="140" viewBox="0 0 700 140"><path fill="#FFF" d="M386.2 95.8s7.1 8.1 20 8.1c11.7 0 19-7.6 19-17 0-21.9-33.5-16.6-33.5-33.9 0-6.4 5.8-12.9 15.5-12.9 8.7 0 14.3 5.6 14.3 5.6l2.2-3.5s-6-6.1-16.7-6.1c-11.9 0-19.7 8.2-19.7 17 0 20.5 33.5 15.4 33.5 34 0 7.9-6.5 12.9-14.6 12.9-10.9 0-17.5-7.3-17.5-7.3l-2.5 3.1zm-50.6 0s7.1 8.1 20 8.1c11.7 0 19-7.6 19-17 0-21.9-33.5-16.6-33.5-33.9 0-6.4 5.8-12.9 15.5-12.9 8.7 0 14.3 5.6 14.3 5.6l2.2-3.5s-6-6.1-16.7-6.1c-11.9 0-19.7 8.2-19.7 17 0 20.5 33.5 15.4 33.5 34 0 7.9-6.5 12.9-14.6 12.9-10.9 0-17.5-7.3-17.5-7.3l-2.5 3.1zm-36.3-53.9s1.4 5.1 2.4 7.9l9.9 26.6h-25l10-26.6c1-2.8 2.4-7.9 2.4-7.9h.3zm22.3 60.9h4.3l-24.5-65.6h-4.3l-24.5 65.6h4.3l8.4-22.7h27.8l8.5 22.7zm-88.7-30.9V41h17.3c9.6 0 15.9 5.5 15.9 15.4 0 9.8-6.4 15.5-15.9 15.5h-17.3zm-4.1 30.9h4V75.6h17.5c11.4 0 19.9-7.4 19.9-19.3s-8.5-19.1-19.9-19.1h-21.5v65.6zm-82.3 0h4l4-50c.3-3.2.3-8.9.3-8.9h.2s2.1 5.8 3.5 8.9L176 90.1h4.1l17.6-37.4c1.5-3.2 3.4-8.7 3.4-8.7h.2s0 5.5.3 8.7l4 50h4l-5.2-65.6h-3.9l-19.1 41.2c-1.5 3.2-3.2 7.4-3.2 7.4h-.2s-1.7-4.2-3.2-7.4l-19.1-41.2h-3.9l-5.3 65.7zM70 69.5c0-16.7 13-29.6 29-29.6s28.9 12.8 28.9 29.6C127.9 86.7 115 100 99 100S70 86.8 70 69.5m-4.2 0c0 19.3 14.9 34.4 33.2 34.4 18.3 0 33.2-15.1 33.2-34.4 0-18.8-14.9-33.4-33.2-33.4-18.3 0-33.2 14.6-33.2 33.4M0 69.5c0 19 13.8 34.4 32.9 34.4 15.9 0 24.7-9.9 24.7-9.9l-2.5-2.8s-8.1 8.9-22.2 8.9c-16.5 0-28.7-13.5-28.7-30.5S16.5 40 32.6 40c13.1 0 20.9 7.4 20.9 7.4l2.4-3s-7.9-8.2-23.4-8.2C14 36.1 0 50.5 0 69.5"/><path fill="#FFF" d="M83.9 71.6l-.3-.1-5.6-.8h-.1l-5.3-.8-.6-.1-3.7-.5v-.1l23.8-3.6-8.1-11 10.8 8 .3.2 1-6.6.1-.4.1-.6.1-.9V54l.8-5.6v-.1l.4-2.4.5-3.4.5-3.7h.2l.5 3.7.8 5.2.1.6v.1l.8 5.6v.3l.1.9.1.6.1.4 1 6.6 11.1-8.2-8.1 11 23.8 3.6v.1l-3.7.5-.6.1-5.3.8h-.1l-5.6.8h-.3l-.9.1-.6.1-.4.1-6.6 1 3.6 4.8 4.6 6.2-11-8.1-1 6.5-.1.4-.1.6-.1.9v.3l-.8 5.6v.1l-.8 5.3-.1.6-.5 3.7h-.2L98 96l-.1-.6-.8-5.3V90l-.8-5.6v-.3l-.1-.9-.1-.6-.1-.4-1-6.6-3.4 2.6-7.7 5.6 8.1-11-6.5-1-.4-.1-.6-.1h-.6zm13-6c.5-.3 1.2-.5 1.8-.5v-25l-2 13.9-1.3 8.9 1.5 2.7zm-1.6 1.5c.2-.3.3-.5.5-.7l-4.6-4.6-6.2-6.2 7.4 9.9 2.9 1.6zm-.1 4c-.3-.5-.4-1.1-.5-1.7l-24.9-.1 13.8 2 8.8 1.3 2.8-1.5zm1.5 1.6c-.3-.2-.5-.3-.7-.5l-1 1-7.8 7.8-2 2 10-7.5 1.5-2.8zm4 .1c-.5.3-1.1.4-1.7.5v25l2.1-13.8 1.3-8.7-1.7-3zm1.6-1.6c-.1.3-.3.5-.5.7l1.1 1.1 9.7 9.7-7.5-10-2.8-1.5zm.1-3.9l2.9-1.6L114 67l13.8 2.1h-25c0-.7-.1-1.2-.4-1.8m-3.6-1.9c2.1 0 3.8 1.7 3.8 3.8 0 2.1-1.7 3.8-3.8 3.8-2.1 0-3.8-1.7-3.8-3.8.1-2.1 1.8-3.8 3.8-3.8m0 1.8c1.1 0 2 .9 2 2s-.9 2-2 2-2-.9-2-2c.1-1.1 1-2 2-2m2.8-.9l1.1-1.1 9.7-9.7-10 7.5-1.6 2.8c.4.1.6.3.8.5"/><path fill="#E3003B" d="M511.2 130c33 0 60-27 60-60s-27-60-60-60-60 27-60 60 27 60 60 60"/><path fill="#FFF" d="M490.1 104.4H534v-8.3h-33.7c.2-15.5 32.7-19 32.7-41.3 0-11.8-9-19.6-21.5-19.6-15.3 0-21.5 12.9-21.5 12.9l7 4.7s4.8-8.7 13.8-8.7c7.1 0 12.2 4.5 12.2 11.3 0 16-33.3 19.5-33.3 43.8-.1 1.6.1 3.3.4 5.2"/></svg>