<svg xmlns="http://www.w3.org/2000/svg" xmlns:xlink="http://www.w3.org/1999/xlink" width="700" height="140" viewBox="0 0 700 140"><defs><path id="a" d="M0 36h382.5v68H0z"/></defs><clipPath id="b"><use xlink:href="#a" overflow="visible"/></clipPath><path clip-path="url(#b)" fill="#FFF" d="M344.8 102.9h37.8v-3.8h-33.7V71.6H375v-3.8h-26.2v-27h31.9V37h-36v65.9zM290.5 70V40.9h15c5.3 0 7.3.5 9.2 1.3 4.8 2.2 7.7 6.9 7.7 12.7 0 8.9-5.4 15.1-14.1 15.1h-17.8zm-4 32.9h4V73.8h18.9l15.6 29.1h4.8l-14.7-27.3c-.8-1.6-1.5-2.3-1.5-2.3V73c7.7-1.7 13.1-8.7 13.1-18.1 0-7.5-3.7-13.1-9.1-15.8-2.6-1.3-5.7-2-11.8-2h-19.3v65.8zm-78.7-33.4c0-16.8 13-29.7 29-29.7 16.1 0 29 12.9 29 29.7 0 17.3-13 30.6-29 30.6-16 .1-29-13.3-29-30.6m-4.2 0c0 19.3 14.9 34.5 33.2 34.5 18.3 0 33.2-15.1 33.2-34.5 0-18.9-14.9-33.5-33.2-33.5-18.3 0-33.2 14.7-33.2 33.5m-39.1 33.4h35.4v-3.8h-31.4v-62h-4v65.8zm-50.9-31v-31H131c9.6 0 16 5.5 16 15.4s-6.4 15.6-16 15.6h-17.4zm-4.1 31h4V75.6h17.6c11.5 0 20-7.4 20-19.3s-8.5-19.2-20-19.2h-21.6v65.8zm-61 0h4.8l15-24.9c2-3.3 3.9-7.1 3.9-7.1h.2l4.2 7 15.2 25h4.8L75.4 68.1l19.1-31h-4.9l-12.7 21c-2 3.2-4 7.3-4 7.3h-.2s-2.4-4.1-4.3-7.3l-12.7-21h-4.9l18.9 31-21.2 34.8zm-48.5 0h37.8v-3.8H4V71.6h26.2v-3.8H4v-27h32V37H0v65.9z"/><g><path fill="#E3003B" d="M465.5 130c33 0 60-27 60-60s-27-60-60-60-60 27-60 60 27 60 60 60"/><path fill="#FFF" d="M444.4 104.4h43.9v-8.3h-33.7c.2-15.5 32.7-19 32.7-41.3 0-11.8-9-19.6-21.5-19.6-15.3 0-21.5 12.9-21.5 12.9l7 4.7s4.8-8.7 13.8-8.7c7.1 0 12.2 4.5 12.2 11.3 0 16-33.3 19.5-33.3 43.8-.1 1.6.1 3.3.4 5.2"/></g></svg>